<svg xmlns="http://www.w3.org/2000/svg" xmlns:xlink="http://www.w3.org/1999/xlink" version="1.1" x="0px" y="0px" viewBox="0 0 500 500" enable-background="new 0 0 500 500" xml:space="preserve"><g><g><g><path d="M115.6,459.8c0-13.8,0-27.7,0-41.5c0-33.2,0-66.5,0-99.7c0-40.4,0-80.8,0-121.2c0-34.7,0-69.3,0-104     c0-11.5,0-23.1,0-34.6c0-5.4,0.5-11,0-16.4c0-0.2,0-0.5,0-0.7c-3.3,3.3-6.7,6.7-10,10c24.2,0,48.4,0,72.5,0     c38.5,0,77.1,0,115.6,0c8.9,0,17.7,0,26.6,0c-2.4-1-4.7-2-7.1-2.9c21.7,20,43.3,40,65,60c3.1,2.8,6.2,5.7,9.2,8.5     c-1-2.4-2-4.7-2.9-7.1c0,11.6,0,23.2,0,34.8c0,27.8,0,55.7,0,83.5c0,33.7,0,67.4,0,101c0,29.1,0,58.2,0,87.3c0,9.6,0,19.1,0,28.7     c0,4.5-0.4,9.2,0,13.7c0,0.2,0,0.4,0,0.6c3.3-3.3,6.7-6.7,10-10c-32.6,0-65.2,0-97.8,0c-51.9,0-103.8,0-155.7,0     c-11.8,0-23.7,0-35.5,0c-12.9,0-12.9,20,0,20c32.6,0,65.2,0,97.8,0c51.9,0,103.8,0,155.7,0c11.8,0,23.7,0,35.5,0     c5.4,0,10-4.6,10-10c0-36.9,0-73.8,0-110.8c0-61.2,0-122.5,0-183.7c0-17,0-34,0-51c0-4.8-0.4-8.8-4.2-12.5     c-8.2-7.8-16.6-15.4-25-23c-11.4-10.5-22.7-21-34.1-31.4c-3.8-3.5-7.5-6.9-11.3-10.4c-2.9-2.7-5.4-5.1-9.8-5.3     c-17-0.9-34.4,0-51.5,0c-53.3,0-106.5,0-159.8,0c-1.1,0-2.3,0-3.4,0c-5.4,0-10,4.6-10,10c0,13.8,0,27.7,0,41.5     c0,33.2,0,66.5,0,99.7c0,40.4,0,80.8,0,121.2c0,34.7,0,69.3,0,104c0,17-0.6,34,0,51c0,0.2,0,0.5,0,0.7     C95.6,472.6,115.6,472.6,115.6,459.8L115.6,459.8z"/></g></g><g><g><path d="M310.2,41.6c0,25.6,0,51.2,0,76.8c0,5.4,4.6,10,10,10c25,0,49.9,0,74.9,0c12.9,0,12.9-20,0-20     c-25,0-49.9,0-74.9,0c3.3,3.3,6.7,6.7,10,10c0-25.6,0-51.2,0-76.8C330.2,28.8,310.2,28.7,310.2,41.6L310.2,41.6z"/></g></g></g><g><g><g><g><path d="M152,113c35.3,0,70.7,0,106,0c5,0,10,0,15,0c12.9,0,12.9-20,0-20c-35.3,0-70.7,0-106,0c-5,0-10,0-15,0      C139.1,93,139.1,113,152,113L152,113z"/></g></g><g><g><path d="M152,165c35.3,0,70.7,0,106,0c5,0,10,0,15,0c12.9,0,12.9-20,0-20c-35.3,0-70.7,0-106,0c-5,0-10,0-15,0      C139.1,145,139.1,165,152,165L152,165z"/></g></g><g><g><path d="M152.9,215c21.9,0,43.8,0,65.7,0c34.9,0,69.7,0,104.6,0c8,0,15.9,0,23.9,0c12.9,0,12.9-20,0-20      c-21.9,0-43.8,0-65.7,0c-34.9,0-69.7,0-104.6,0c-8,0-15.9,0-23.9,0C140.1,195,140,215,152.9,215L152.9,215z"/></g></g><g><g><path d="M152.9,263c21.9,0,43.8,0,65.7,0c34.9,0,69.7,0,104.6,0c8,0,15.9,0,23.9,0c12.9,0,12.9-20,0-20      c-21.9,0-43.8,0-65.7,0c-34.9,0-69.7,0-104.6,0c-8,0-15.9,0-23.9,0C140.1,243,140,263,152.9,263L152.9,263z"/></g></g><g><g><path d="M152.9,311c21.9,0,43.8,0,65.7,0c34.9,0,69.7,0,104.6,0c8,0,15.9,0,23.9,0c12.9,0,12.9-20,0-20      c-21.9,0-43.8,0-65.7,0c-34.9,0-69.7,0-104.6,0c-8,0-15.9,0-23.9,0C140.1,291,140,311,152.9,311L152.9,311z"/></g></g><g><g><path d="M152.9,359c21.9,0,43.8,0,65.7,0c34.9,0,69.7,0,104.6,0c8,0,15.9,0,23.9,0c12.9,0,12.9-20,0-20      c-21.9,0-43.8,0-65.7,0c-34.9,0-69.7,0-104.6,0c-8,0-15.9,0-23.9,0C140.1,339,140,359,152.9,359L152.9,359z"/></g></g></g><g><g><path d="M152.9,407c21.9,0,43.8,0,65.7,0c34.9,0,69.7,0,104.6,0c8,0,15.9,0,23.9,0c12.9,0,12.9-20,0-20     c-21.9,0-43.8,0-65.7,0c-34.9,0-69.7,0-104.6,0c-8,0-15.9,0-23.9,0C140.1,387,140,407,152.9,407L152.9,407z"/></g></g></g></svg>