<svg xmlns="http://www.w3.org/2000/svg" xmlns:xlink="http://www.w3.org/1999/xlink" version="1.1" x="0px" y="0px" viewBox="0 0 500 500" enable-background="new 0 0 500 500" xml:space="preserve"><g><g><g><g><path d="M193.3,205.9c-37.5,0-75,0-112.5,0c-3.3,0-10.8,1.3-13-1.7c-2.1-2.9-0.8-9.8-0.8-13.2      c0-22.7,0-45.3,0-68c0-10.4,0-20.8,0-31.1c0-3.9-1.1-9.8,0.2-13.5c1.5-4.3,8.6-2.9,12.2-2.9c9.5,0,19.1,0,28.6,0      c23.3,0,46.5,0,69.8,0c5,0,10.4-0.6,15.4,0c5.4,0.6,4.4,5.8,4.4,10c0,21.1,0,42.2,0,63.3c0,17.4,0.9,35,0,52.4      C197.4,203.6,196.2,205.8,193.3,205.9c-12.8,0.6-12.9,20.6,0,20c11.4-0.5,21.7-8,23.8-19.6c0.5-2.7,0.5-5.3,0.5-8      c0-8.5,0-17,0-25.5c0-25,0-50,0-75c0-6,0.2-12.1,0-18.1c-0.5-14.7-11.7-24.5-26-24.6c-20.2-0.1-40.5,0-60.8,0      c-19.5,0-39-0.2-58.5,0C58,55.5,47.2,65.9,47,80.3c-0.1,6.6,0,13.3,0,19.9c0,25.1,0,50.2,0,75.2c0,8,0,15.9,0,23.9      c0,14.4,9.4,26,24.4,26.6c17.3,0.7,34.7,0,52,0c22,0,43.9,0,65.9,0c1.3,0,2.7,0,4,0C206.1,225.9,206.2,205.9,193.3,205.9z"/></g></g><g><g><path d="M428.7,205.9c-37.5,0-75,0-112.5,0c-3.3,0-10.8,1.3-13-1.7c-2.1-2.9-0.8-9.8-0.8-13.2      c0-22.7,0-45.3,0-68c0-10.4,0-20.8,0-31.1c0-3.9-1.1-9.8,0.2-13.5c1.5-4.3,8.6-2.9,12.2-2.9c9.5,0,19.1,0,28.6,0      c23.3,0,46.5,0,69.8,0c5,0,10.4-0.6,15.4,0c5.4,0.6,4.4,5.8,4.4,10c0,21.1,0,42.2,0,63.3c0,17.4,0.9,35,0,52.4      C432.9,203.6,431.7,205.8,428.7,205.9c-12.8,0.6-12.9,20.6,0,20c11.4-0.5,21.7-8,23.8-19.6c0.5-2.7,0.5-5.3,0.5-8      c0-8.5,0-17,0-25.5c0-25,0-50,0-75c0-6,0.2-12.1,0-18.1c-0.5-14.7-11.7-24.5-26-24.6c-20.2-0.1-40.5,0-60.8,0      c-19.5,0-39-0.2-58.5,0c-14.3,0.2-25.1,10.6-25.3,25c-0.1,6.6,0,13.3,0,19.9c0,25.1,0,50.2,0,75.2c0,8,0,15.9,0,23.9      c0,14.4,9.4,26,24.4,26.6c17.3,0.7,34.7,0,52,0c22,0,43.9,0,65.9,0c1.3,0,2.7,0,4,0C441.6,225.9,441.6,205.9,428.7,205.9z"/></g></g></g><g><g><g><path d="M193.3,424.5c-37.5,0-75,0-112.5,0c-3.3,0-10.8,1.3-13-1.7c-2.1-2.9-0.8-9.8-0.8-13.2      c0-22.7,0-45.3,0-68c0-10.4,0-20.8,0-31.1c0-3.9-1.1-9.8,0.2-13.5c1.5-4.3,8.6-2.9,12.2-2.9c9.5,0,19.1,0,28.6,0      c23.3,0,46.5,0,69.8,0c5,0,10.4-0.6,15.4,0c5.4,0.6,4.4,5.8,4.4,10c0,21.1,0,42.2,0,63.3c0,17.4,0.9,35,0,52.4      C197.4,422.2,196.2,424.4,193.3,424.5c-12.8,0.6-12.9,20.6,0,20c11.4-0.5,21.7-8,23.8-19.6c0.5-2.7,0.5-5.3,0.5-8      c0-8.5,0-17,0-25.5c0-25,0-50,0-75c0-6,0.2-12.1,0-18.1c-0.5-14.7-11.7-24.5-26-24.6c-20.2-0.1-40.5,0-60.8,0      c-19.5,0-39-0.2-58.5,0c-14.3,0.2-25.1,10.6-25.3,25c-0.1,6.6,0,13.3,0,19.9c0,25.1,0,50.2,0,75.2c0,8,0,15.9,0,23.9      c0,14.4,9.4,26,24.4,26.6c17.3,0.7,34.7,0,52,0c22,0,43.9,0,65.9,0c1.3,0,2.7,0,4,0C206.1,444.5,206.2,424.5,193.3,424.5z"/></g></g><g><g><path d="M428.7,424.5c-37.5,0-75,0-112.5,0c-3.3,0-10.8,1.3-13-1.7c-2.1-2.9-0.8-9.8-0.8-13.2      c0-22.7,0-45.3,0-68c0-10.4,0-20.8,0-31.1c0-3.9-1.1-9.8,0.2-13.5c1.5-4.3,8.6-2.9,12.2-2.9c9.5,0,19.1,0,28.6,0      c23.3,0,46.5,0,69.8,0c5,0,10.4-0.6,15.4,0c5.4,0.6,4.4,5.8,4.4,10c0,21.1,0,42.2,0,63.3c0,17.4,0.9,35,0,52.4      C432.9,422.2,431.7,424.4,428.7,424.5c-12.8,0.6-12.9,20.6,0,20c11.4-0.5,21.7-8,23.8-19.6c0.5-2.7,0.5-5.3,0.5-8      c0-8.5,0-17,0-25.5c0-25,0-50,0-75c0-6,0.2-12.1,0-18.1c-0.5-14.7-11.7-24.5-26-24.6c-20.2-0.1-40.5,0-60.8,0      c-19.5,0-39-0.2-58.5,0c-14.3,0.2-25.1,10.6-25.3,25c-0.1,6.6,0,13.3,0,19.9c0,25.1,0,50.2,0,75.2c0,8,0,15.9,0,23.9      c0,14.4,9.4,26,24.4,26.6c17.3,0.7,34.7,0,52,0c22,0,43.9,0,65.9,0c1.3,0,2.7,0,4,0C441.6,444.5,441.6,424.5,428.7,424.5z"/></g></g></g></g></svg>